#!OML:ASF F:\VICON\USERDATA\INSTALL\rory3\rory3.ASF
:FULLY-SPECIFIED
:DEGREES
1681
root 1.37922 16.1395 -0.439169 1.56793 -6.76259 5.33894
lowerback 9.94725 -1.30643 5.50022
upperback -0.424191 -0.529773 9.55167
thorax -6.03911 -0.278383 7.18597
lowerneck -8.20386 -9.21944 -8.88275
upperneck 27.4563 -14.5664 10.1057
head 11.736 -6.41479 3.29143
rclavicle -3.97569e-015 6.36111e-015
rhumerus 31.755 -35.686 -22.5175
rradius 55.1086
rwrist 24.1917
rhand 15.3053 3.86112
rfingers 7.12502
rthumb 40.1389 -21.3229
lclavicle -3.97569e-015 6.36111e-015
lhumerus -87.6496 -52.3813 119.185
lradius 99.7454
lwrist 32.4377
lhand 15.7718 18.2146
lfingers 7.12502
lthumb 40.5777 43.2637
rfemur -7.62003 18.7769 5.69846
rtibia 17.8
rfoot -10.4446 -14.4922
rtoes -13.0233
lfemur 3.64754 -4.92367 -27.0671
ltibia 2.38542e-015
lfoot -2.96814 9.82262
ltoes -5.81548
1682
root 1.37629 16.1388 -0.441165 1.48132 -6.74655 5.29849
lowerback 10.0391 -1.30232 5.41173
upperback -0.448068 -0.526034 9.46428
thorax -6.11643 -0.274764 7.14408
lowerneck -8.06625 -9.24271 -8.97459
upperneck 27.4239 -14.6046 10.16
head 11.7129 -6.44235 3.32644
rclavicle -1.63003e-014 6.67916e-014
rhumerus 31.4413 -35.6234 -22.4533
rradius 55.1652
rwrist 24.0581
rhand 15.2403 3.85727
rfingers 7.12502
rthumb 40.0778 -21.3453
lclavicle -1.63003e-014 6.67916e-014
lhumerus -87.8461 -52.407 119.296
lradius 99.8098
lwrist 32.4461
lhand 15.6675 18.2364
lfingers 7.12502
lthumb 40.4796 43.316
rfemur -7.50714 18.743 5.78829
rtibia 17.7953
rfoot -10.4781 -14.4571
rtoes -12.8991
lfemur 3.75054 -4.92918 -27.0185
ltibia 1.11319e-014
lfoot -2.99611 9.80556
ltoes -5.56474
1683
root 1.37261 16.1389 -0.44352 1.44279 -6.73791 5.25649
lowerback 10.0711 -1.30613 5.3086
upperback -0.467714 -0.54314 9.36671
thorax -6.1532 -0.281349 7.09938
lowerneck -7.94137 -9.25385 -8.98301
upperneck 27.3708 -14.6308 10.1943
head 11.6739 -6.45868 3.34168
rclavicle 4.92986e-014 -6.67916e-014
rhumerus 31.1945 -35.6636 -22.5556
rradius 55.2657
rwrist 24.0556
rhand 15.2921 3.94492
rfingers 7.12502
rthumb 40.1265 -21.2428
lclavicle 4.92986e-014 -6.67916e-014
lhumerus -87.8862 -52.4577 119.248
lradius 99.8487
lwrist 32.4845
lhand 15.6683 18.1881
lfingers 7.12502
lthumb 40.4804 43.2674
rfemur -7.44626 18.6775 5.86623
rtibia 17.7674
rfoot -10.4799 -14.4001
rtoes -12.9493
lfemur 3.80176 -4.93342 -26.9637
ltibia -2.38542e-015
lfoot -2.96733 9.77347
ltoes -5.48961
1684
root 1.36801 16.1391 -0.444609 1.42461 -6.75858 5.15388
lowerback 10.0364 -1.32151 5.22057
upperback -0.418965 -0.586345 9.32679
thorax -6.07641 -0.301196 7.10753
lowerneck -8.02867 -9.26956 -9.03092
upperneck 27.3572 -14.6291 10.1682
head 11.6878 -6.46325 3.33516
rclavicle -2.82274e-014 6.36111e-015
rhumerus 31.2731 -35.7923 -22.8026
rradius 55.2386
rwrist 24.1128
rhand 15.2968 4.02652
rfingers 7.12502
rthumb 40.1309 -21.1599
lclavicle -2.82274e-014 6.36111e-015
lhumerus -87.6905 -52.4406 119.039
lradius 99.897
lwrist 32.5557
lhand 15.7916 18.279
lfingers 7.12502
lthumb 40.5963 43.3224
rfemur -7.4098 18.5826 6.00706
rtibia 17.7132
rfoot -10.4309 -14.3022
rtoes -12.8215
lfemur 3.83103 -4.90914 -26.8333
ltibia -7.95139e-015
lfoot -2.92505 9.7402
ltoes -5.71672
1685
root 1.36297 16.14 -0.444794 1.39355 -6.81846 4.98943
lowerback 10.0374 -1.3257 5.18157
upperback -0.360763 -0.603853 9.31988
thorax -6.01252 -0.309458 7.12177
lowerneck -8.26347 -9.2913 -9.14277
upperneck 27.464 -14.6195 10.1032
head 11.7801 -6.46579 3.31984
rclavicle -3.18055e-015 2.22639e-014
rhumerus 31.3291 -35.8613 -22.9126
rradius 55.189
rwrist 24.1843
rhand 15.3101 4.1185
rfingers 7.12502
rthumb 40.1435 -21.0641
lclavicle -3.18055e-015 2.22639e-014
lhumerus -87.6124 -52.2892 118.906
lradius 99.9526
lwrist 32.4642
lhand 15.8628 18.2336
lfingers 7.12502
lthumb 40.6632 43.2561
rfemur -7.36504 18.5661 6.22137
rtibia 17.6791
rfoot -10.3751 -14.2314
rtoes -12.5382
lfemur 3.88856 -4.84188 -26.6354
ltibia -1.03368e-014
lfoot -2.91181 9.72597
ltoes -5.73321
1686
root 1.35832 16.1408 -0.445873 1.38994 -6.86298 4.95792
lowerback 10.0852 -1.30725 5.07262
upperback -0.38654 -0.589452 9.226
thorax -6.06744 -0.30019 7.08096
lowerneck -8.35749 -9.32082 -9.19056
upperneck 27.56 -14.6503 10.0667
head 11.8418 -6.48297 3.30522
rclavicle -3.69739e-014 -1.59028e-014
rhumerus 31.071 -35.7982 -22.7561
rradius 55.1985
rwrist 24.1017
rhand 15.2961 4.08005
rfingers 7.12502
rthumb 40.1303 -21.1066
lclavicle -3.69739e-014 -1.59028e-014
lhumerus -87.7717 -52.2333 118.966
lradius 99.9648
lwrist 32.3547
lhand 15.8921 18.1619
lfingers 7.12502
lthumb 40.6907 43.1758
rfemur -7.36481 18.5481 6.26902
rtibia 17.651
rfoot -10.3276 -14.1471
rtoes -12.5053
lfemur 3.90064 -4.79813 -26.5807
ltibia -1.51076e-014
lfoot -2.92419 9.70793
ltoes -5.40801
1687
root 1.35269 16.1408 -0.449003 1.38132 -6.88625 4.94898
lowerback 10.1343 -1.26928 4.94299
upperback -0.421324 -0.552646 9.09448
thorax -6.1345 -0.279662 7.00719
lowerneck -8.26358 -9.36406 -9.19177
upperneck 27.5248 -14.7298 10.1157
head 11.8233 -6.51862 3.31494
rclavicle 1.98785e-014 1.27222e-014
rhumerus 30.6546 -35.7717 -22.5491
rradius 55.2759
rwrist 23.9907
rhand 15.2346 3.93792
rfingers 7.12502
rthumb 40.0724 -21.2662
lclavicle 1.98785e-014 1.27222e-014
lhumerus -87.9578 -52.3921 119.015
lradius 100.023
lwrist 32.3945
lhand 15.9773 18.1577
lfingers 7.12502
lthumb 40.7708 43.1465
rfemur -7.37466 18.4961 6.30557
rtibia 17.6232
rfoot -10.1999 -14.1303
rtoes -13.3308
lfemur 3.89791 -4.77651 -26.5431
ltibia 9.54166e-015
lfoot -2.95904 9.68616
ltoes -5.03735
1688
root 1.34594 16.141 -0.451644 1.3674 -6.93019 4.91312
lowerback 10.0674 -1.22685 4.79214
upperback -0.364478 -0.534698 8.9752
thorax -6.03537 -0.268968 6.95204
lowerneck -8.27772 -9.40153 -9.14075
upperneck 27.4755 -14.8085 10.1927
head 11.8192 -6.54142 3.32142
rclavicle 7.95139e-015 5.40694e-014
rhumerus 30.5114 -35.9762 -22.6903
rradius 55.3031
rwrist 24.1193
rhand 15.223 3.91938
rfingers 7.12502
rthumb 40.0615 -21.2881
lclavicle 7.95139e-015 5.40694e-014
lhumerus -87.8856 -52.5546 118.817
lradius 100.143
lwrist 32.4448
lhand 15.9668 18.2329
lfingers 7.12502
lthumb 40.7609 43.2247
rfemur -7.36759 18.5227 6.37564
rtibia 17.5951
rfoot -10.1546 -14.1192
rtoes -13.4308
lfemur 3.91542 -4.73238 -26.4735
ltibia 1.59028e-014
lfoot -2.98256 9.68013
ltoes -4.90734
1689
root 1.34178 16.1425 -0.452563 1.37643 -6.95269 4.84658
lowerback 9.9676 -1.18782 4.70257
upperback -0.304326 -0.516411 8.87093
thorax -5.91492 -0.259935 6.8772
lowerneck -8.2049 -9.43503 -9.08429
upperneck 27.3587 -14.8894 10.3072
head 11.7743 -6.56583 3.34421
rclavicle -5.4467e-014 1.17681e-013
rhumerus 30.5285 -36.2902 -22.9572
rradius 55.2323
rwrist 24.4401
rhand 15.2274 3.98862
rfingers 7.12502
rthumb 40.0657 -21.2176
lclavicle -5.4467e-014 1.17681e-013
lhumerus -87.7113 -52.7754 118.644
lradius 100.133
lwrist 32.5339
lhand 15.8507 18.3086
lfingers 7.12502
lthumb 40.6518 43.3347
rfemur -7.3598 18.5228 6.46576
rtibia 17.5635
rfoot -10.1082 -14.1155
rtoes -13.3177
lfemur 3.92116 -4.71068 -26.3827
ltibia -1.19271e-014
lfoot -2.87223 9.67695
ltoes -5.33717
1690
root 1.3381 16.143 -0.454069 1.36248 -6.97265 4.69805
lowerback 9.98402 -1.14347 4.70827
upperback -0.25332 -0.463532 8.81214
thorax -5.87423 -0.235479 6.79898
lowerneck -8.11183 -9.47961 -9.08193
upperneck 27.218 -14.9646 10.3927
head 11.7174 -6.59766 3.36643
rclavicle -2.38542e-014 -2.22639e-014
rhumerus 30.4496 -36.5474 -22.95
rradius 55.1794
rwrist 24.5497
rhand 15.2506 3.97785
rfingers 7.12502
rthumb 40.0875 -21.2217
lclavicle -2.38542e-014 -2.22639e-014
lhumerus -87.4564 -53.2808 118.516
lradius 100.075
lwrist 32.7758
lhand 15.788 18.4025
lfingers 7.12502
lthumb 40.5929 43.4469
rfemur -7.32574 18.4345 6.65789
rtibia 17.5263
rfoot -10.0525 -14.0134
rtoes -13.4096
lfemur 3.96138 -4.68603 -26.2048
ltibia -7.95139e-015
lfoot -2.75954 9.64465
ltoes -5.56928
